<?xml version="1.0" standalone="no"?>
<!DOCTYPE svg PUBLIC "-//W3C//DTD SVG 20010904//EN"
 "http://www.w3.org/TR/2001/REC-SVG-20010904/DTD/svg10.dtd">
<svg version="1.0" xmlns="http://www.w3.org/2000/svg"
 width="700.000000pt" height="700.000000pt" viewBox="0 0 700.000000 700.000000"
 preserveAspectRatio="xMidYMid meet">
<metadata>
Created by potrace 1.14, written by Peter Selinger 2001-2017
</metadata>
<g transform="translate(0.000000,700.000000) scale(0.100000,-0.100000)"
fill="#000000" stroke="none">
<path d="M3247 6994 c-2 -2 -33 -6 -68 -9 -35 -3 -82 -8 -104 -11 -22 -2 -56
-7 -75 -9 -19 -2 -35 -4 -35 -5 0 -1 -9 -3 -20 -4 -24 -3 -117 -19 -127 -22
-5 -1 -17 -2 -29 -3 -11 0 -18 -5 -15 -10 4 -5 -2 -7 -11 -5 -10 2 -54 -5 -98
-16 -44 -11 -91 -23 -104 -26 -14 -3 -28 -7 -33 -10 -5 -3 -20 -8 -35 -10 -15
-3 -31 -8 -37 -12 -6 -3 -20 -8 -31 -9 -11 -2 -29 -7 -40 -12 -11 -5 -49 -19
-85 -31 -36 -13 -78 -29 -95 -36 -16 -7 -64 -27 -105 -45 -41 -17 -136 -63
-210 -102 -74 -38 -145 -75 -157 -81 -13 -6 -23 -14 -23 -18 0 -5 -5 -8 -11
-8 -19 0 -353 -229 -379 -260 -3 -3 -18 -16 -35 -29 -253 -194 -581 -568 -771
-881 -96 -158 -274 -515 -274 -550 0 -4 -8 -25 -17 -46 -9 -22 -18 -46 -19
-54 -2 -8 -7 -23 -13 -35 -39 -79 -136 -471 -156 -634 -4 -30 -8 -61 -10 -71
-27 -138 -27 -738 0 -879 1 -9 6 -38 10 -66 13 -98 15 -109 39 -224 98 -467
307 -935 593 -1329 170 -234 409 -486 623 -657 41 -33 77 -62 80 -65 3 -4 28
-22 55 -41 28 -18 52 -36 55 -39 15 -15 100 -70 108 -70 6 0 12 -4 14 -8 4
-12 208 -132 290 -171 36 -18 69 -35 73 -39 4 -4 10 -7 13 -7 4 0 42 -17 85
-38 43 -20 81 -37 86 -37 4 0 27 -10 51 -21 24 -12 54 -22 67 -23 13 0 23 -4
23 -8 0 -8 204 -75 253 -84 16 -2 37 -9 46 -13 16 -8 196 -51 236 -57 11 -1
31 -4 45 -7 85 -17 152 -28 205 -33 33 -3 74 -8 90 -10 71 -10 530 -12 541 -3
8 7 14 6 19 -1 3 -6 10 -8 15 -5 5 3 37 7 72 10 104 7 192 16 208 22 8 3 33 8
55 10 22 2 108 19 190 38 83 19 161 37 174 40 13 3 31 10 40 14 9 5 20 9 24 9
26 -1 266 86 260 95 -3 6 -1 7 6 3 6 -4 25 0 43 8 17 9 37 16 45 16 8 0 11 5
7 12 -4 7 -3 8 4 4 6 -4 22 -1 34 6 13 7 25 13 28 13 3 1 22 9 43 18 20 9 41
17 45 17 4 1 14 7 22 13 8 7 43 26 77 42 42 20 61 35 58 44 -4 10 -2 11 7 3
10 -8 20 -6 38 8 14 11 31 20 38 20 6 0 12 5 12 10 0 6 5 10 10 10 10 0 171
97 180 109 3 4 37 28 76 54 38 26 81 58 95 70 13 12 50 41 82 65 32 24 55 47
52 53 -4 5 -2 8 4 7 13 -4 130 94 130 109 1 7 5 12 9 10 14 -4 162 154 155
166 -3 5 -1 7 5 4 5 -4 30 16 54 44 23 29 48 57 53 63 84 89 278 363 268 379
-3 5 -1 7 5 3 6 -3 16 7 24 24 7 16 17 30 21 30 5 0 5 5 2 10 -3 5 -2 10 3 10
5 0 15 12 23 28 7 15 24 44 36 65 13 20 20 37 16 37 -5 0 -3 4 2 8 19 14 46
72 39 85 -4 6 -3 8 1 4 10 -9 117 207 119 240 0 11 4 19 9 16 4 -2 7 0 7 6 0
5 5 22 12 38 14 35 19 54 21 75 1 9 4 15 8 12 4 -2 9 3 13 11 3 8 0 15 -7 15
-8 0 -8 3 -1 8 8 6 37 66 39 82 1 3 9 32 19 65 10 33 20 67 22 75 2 8 8 35 15
60 6 25 13 54 15 65 6 29 13 62 20 88 14 53 25 114 40 227 4 25 8 52 9 60 1 8
-5 24 -14 35 -15 18 -15 19 0 7 14 -11 17 -9 21 18 2 16 0 35 -6 41 -8 9 -8
10 2 5 14 -8 13 -18 17 287 2 147 0 195 -8 190 -8 -5 -8 -2 0 8 7 8 10 26 8
40 -4 23 -14 147 -18 217 -1 17 -5 32 -9 32 -4 0 -5 12 -2 26 3 19 1 24 -8 18
-10 -6 -11 -5 -1 8 7 8 10 18 6 22 -4 3 -8 21 -9 39 -1 17 -3 36 -3 40 -1 5
-7 5 -13 1 -10 -6 -10 -5 -1 8 7 8 11 17 9 19 -2 2 -7 22 -10 44 -7 42 -23
110 -33 135 -3 8 -7 26 -8 40 -1 14 -11 52 -21 85 -10 33 -17 63 -16 68 1 4
-2 7 -6 7 -5 0 -9 6 -10 13 -2 32 -14 72 -23 75 -5 2 -7 8 -3 13 3 5 -2 23
-10 41 -9 17 -16 35 -16 39 0 4 -5 20 -12 36 -6 15 -12 31 -12 35 -1 3 -4 10
-8 14 -5 4 -8 13 -8 20 0 8 -13 42 -28 76 -16 35 -39 86 -52 115 -13 29 -27
50 -31 47 -4 -2 -11 1 -15 7 -4 8 -3 9 4 5 19 -12 14 5 -24 74 -20 36 -45 82
-55 103 -11 20 -25 37 -31 37 -6 0 -8 3 -5 7 6 5 -27 69 -43 83 -3 3 -14 22
-25 43 -11 20 -23 37 -27 37 -5 0 -8 4 -8 10 0 11 -108 164 -139 197 -12 12
-21 25 -21 27 0 6 -33 45 -77 93 -13 13 -23 26 -23 29 0 25 -458 464 -484 464
-3 0 -17 11 -32 25 -25 23 -56 46 -174 124 -25 17 -50 35 -57 41 -7 5 -15 10
-18 10 -4 0 -13 7 -22 16 -9 8 -23 12 -31 9 -9 -3 -13 -3 -9 1 9 9 -99 76
-233 145 -82 42 -119 57 -124 52 -3 -4 -6 -1 -6 5 0 7 -4 12 -10 12 -5 0 -39
14 -75 30 -36 17 -72 30 -80 30 -8 0 -15 5 -15 12 0 6 -3 8 -7 5 -3 -4 -12 -2
-20 4 -7 6 -13 8 -13 4 0 -4 -6 -2 -13 4 -8 6 -22 12 -33 14 -10 1 -23 5 -29
8 -18 10 -213 72 -270 85 -160 37 -237 54 -265 58 -19 3 -46 8 -60 11 -26 6
-68 11 -155 21 -27 3 -66 7 -85 10 -43 6 -577 13 -583 8z m318 -23 c3 -5 2
-12 -3 -15 -5 -3 -9 1 -9 9 0 17 3 19 12 6z m1625 -435 c0 -2 -8 -10 -17 -17
-16 -13 -17 -12 -4 4 13 16 21 21 21 13z m297 -211 c0 -8 -4 -12 -9 -9 -5 3
-6 10 -3 15 9 13 12 11 12 -6z m318 -204 c3 -5 2 -12 -3 -15 -5 -3 -9 1 -9 9
0 17 3 19 12 6z m-621 -251 c-6 -6 -10 -3 -10 10 0 13 4 16 10 10 7 -7 7 -13
0 -20z m537 -3 c-10 -9 -11 -8 -5 6 3 10 9 15 12 12 3 -3 0 -11 -7 -18z m179
19 c0 -2 -8 -10 -17 -17 -16 -13 -17 -12 -4 4 13 16 21 21 21 13z m-330 -40
c0 -3 -4 -8 -10 -11 -5 -3 -10 -1 -10 4 0 6 5 11 10 11 6 0 10 -2 10 -4z
m-915 -46 c-3 -5 -12 -10 -18 -10 -7 0 -6 4 3 10 19 12 23 12 15 0z m915 -116
c0 -8 -19 -13 -24 -6 -3 5 1 9 9 9 8 0 15 -2 15 -3z m151 -51 c13 -16 12 -17
-3 -4 -10 7 -18 15 -18 17 0 8 8 3 21 -13z m-157 -31 c3 -5 -1 -9 -9 -9 -8 0
-12 4 -9 9 3 4 7 8 9 8 2 0 6 -4 9 -8z m-378 -37 c-1 -8 -5 -17 -8 -21 -5 -4
-4 16 1 34 3 9 9 -1 7 -13z m1219 -354 c3 -5 2 -12 -3 -15 -5 -3 -9 1 -9 9 0
17 3 19 12 6z m-878 -16 c0 -8 -4 -12 -9 -9 -5 3 -6 10 -3 15 9 13 12 11 12
-6z m-876 -32 c13 -16 12 -17 -3 -4 -17 13 -22 21 -14 21 2 0 10 -8 17 -17z
m834 -112 c3 -5 2 -12 -3 -15 -5 -3 -9 1 -9 9 0 17 3 19 12 6z m79 -9 c3 -5
-1 -9 -9 -9 -8 0 -12 4 -9 9 3 4 7 8 9 8 2 0 6 -4 9 -8z m936 4 c0 -2 -8 -10
-17 -17 -16 -13 -17 -12 -4 4 13 16 21 21 21 13z m-779 -53 c13 -16 12 -17 -3
-4 -10 7 -18 15 -18 17 0 8 8 3 21 -13z m533 -111 c2 -4 -4 -8 -14 -8 -10 0
-16 4 -14 8 3 4 9 8 14 8 5 0 11 -4 14 -8z m-439 -42 c3 -6 -1 -7 -9 -4 -18 7
-21 14 -7 14 6 0 13 -4 16 -10z m-134 -87 c13 -16 12 -17 -3 -4 -10 7 -18 15
-18 17 0 8 8 3 21 -13z m973 -71 c3 -5 -1 -9 -9 -9 -8 0 -12 4 -9 9 3 4 7 8 9
8 2 0 6 -4 9 -8z m-484 -162 c0 -5 -2 -10 -4 -10 -3 0 -8 5 -11 10 -3 6 -1 10
4 10 6 0 11 -4 11 -10z m114 -246 c3 -8 2 -12 -4 -9 -6 3 -10 10 -10 16 0 14
7 11 14 -7z m-74 -58 c0 -2 -8 -10 -17 -17 -16 -13 -17 -12 -4 4 13 16 21 21
21 13z m-2645 -45 c3 -5 2 -12 -3 -15 -5 -3 -9 1 -9 9 0 17 3 19 12 6z m85 -5
c0 -3 -4 -8 -10 -11 -5 -3 -10 -1 -10 4 0 6 5 11 10 11 6 0 10 -2 10 -4z
m2925 -206 c-3 -5 -12 -10 -18 -10 -7 0 -6 4 3 10 19 12 23 12 15 0z m79 -78
c3 -5 -1 -9 -9 -9 -8 0 -12 4 -9 9 3 4 7 8 9 8 2 0 6 -4 9 -8z m-247 -117 c0
-8 -4 -12 -9 -9 -5 3 -6 10 -3 15 9 13 12 11 12 -6z m114 -532 c13 -16 12 -17
-3 -4 -10 7 -18 15 -18 17 0 8 8 3 21 -13z m90 -150 c13 -16 12 -17 -3 -4 -10
7 -18 15 -18 17 0 8 8 3 21 -13z m-281 -197 c0 -2 -7 -7 -16 -10 -8 -3 -12 -2
-9 4 6 10 25 14 25 6z m278 -371 c-3 -3 -9 2 -12 12 -6 14 -5 15 5 6 7 -7 10
-15 7 -18z m207 -95 c-3 -5 -12 -10 -18 -10 -7 0 -6 4 3 10 19 12 23 12 15 0z
m-931 -950 c-6 -6 -10 -3 -10 10 0 13 4 16 10 10 7 -7 7 -13 0 -20z m242 -156
c1 -9 0 -13 -4 -10 -3 4 -7 14 -8 22 -1 9 0 13 4 10 3 -4 7 -14 8 -22z m-431
-34 c-3 -5 -12 -10 -18 -10 -7 0 -6 4 3 10 19 12 23 12 15 0z m66 -7 c13 -16
12 -17 -3 -4 -17 13 -22 21 -14 21 2 0 10 -8 17 -17z m-111 -27 c0 -2 -7 -7
-16 -10 -8 -3 -12 -2 -9 4 6 10 25 14 25 6z m435 -14 c-3 -3 -11 0 -18 7 -9
10 -8 11 6 5 10 -3 15 -9 12 -12z m-114 -69 c13 -16 12 -17 -3 -4 -10 7 -18
15 -18 17 0 8 8 3 21 -13z m-326 -91 c-3 -3 -11 0 -18 7 -9 10 -8 11 6 5 10
-3 15 -9 12 -12z m-151 -30 c3 -5 -1 -9 -9 -9 -8 0 -12 4 -9 9 3 4 7 8 9 8 2
0 6 -4 9 -8z m-106 -127 c-3 -3 -9 2 -12 12 -6 14 -5 15 5 6 7 -7 10 -15 7
-18z m176 -33 c3 -5 -1 -9 -9 -9 -8 0 -12 4 -9 9 3 4 7 8 9 8 2 0 6 -4 9 -8z
m86 -2 c0 -5 -2 -10 -4 -10 -3 0 -8 5 -11 10 -3 6 -1 10 4 10 6 0 11 -4 11
-10z m0 -80 c0 -5 -2 -10 -4 -10 -3 0 -8 5 -11 10 -3 6 -1 10 4 10 6 0 11 -4
11 -10z m-906 -518 c3 -5 -1 -9 -9 -9 -8 0 -12 4 -9 9 3 4 7 8 9 8 2 0 6 -4 9
-8z"/>
</g>
</svg>
